<?xml version="1.0" encoding="UTF-8"?>
<svg id="Layer_2" data-name="Layer 2" xmlns="http://www.w3.org/2000/svg" viewBox="0 0 797 775">
  <defs>
    <style>
      .cls-1 {
        fill: #419dec;
      }
    </style>
  </defs>
  <g id="Layer_1-2" data-name="Layer 1">
    <path class="cls-1" d="m470,186c-103-3-203,82-203,224,0,80,31,140,75,179,113,7,185-73,202-162h151l102,92c-44,152-177,256-339,256h-110C177,775,0,645,0,397,0,168,153,0,358,0h104c152,0,280,89,334,252l-107,96h-140c-9-72-40-126-79-162Zm-140,563c-119-50-210-171-210-345S227,113,357,113c92,0,183,75,211,199l76-69C596,113,477,27,357,27,162,27,27,193,27,397c0,223,152,342,303,352Zm107-587c-25-15-53-22-79-22-111,0-211,105-211,264,0,216,145,344,316,344,131,0,251-77,303-219l-77-69c-29,130-119,202-230,202-103,0-219-90-219-251,0-142,86-235,197-249Zm227,292h-98c-18,68-80,148-188,160,26,14,53,21,81,21,99,0,181-65,205-181Zm4-221h93C709,101,592,31,475,26c80,34,154,103,193,207Zm77,27h-78l-68,61h78l68-61Z"/>
  </g>
</svg>